<?xml version="1.0" encoding="UTF-8"?>
<svg xmlns="http://www.w3.org/2000/svg" width="820" height="360" viewBox="0 0 820 360" font-family="Segoe UI, Arial, sans-serif">
  <defs>
    <marker id="arrow" markerWidth="8" markerHeight="8" refX="7" refY="3" orient="auto">
      <path d="M0,0 L7,3 L0,6 Z" fill="#334155"/>
    </marker>
    <style>
      .box { fill:#f8fafc; stroke:#334155; stroke-width:2; rx:8; }
      .title { font-size:18px; font-weight:700; fill:#0f172a; }
      .label { font-size:13px; fill:#1e293b; }
      .small { font-size:11px; fill:#64748b; }
      .line { stroke:#334155; stroke-width:2; fill:none; marker-end:url(#arrow); }
    </style>
  </defs>
  <rect width="820" height="360" fill="#ffffff"/>
  <text x="410" y="28" text-anchor="middle" class="title">APB3 Slave — RTL Hierarchy</text>

  <rect x="30" y="130" width="120" height="70" class="box"/>
  <text x="90" y="158" text-anchor="middle" class="label">APB Master</text>
  <text x="90" y="178" text-anchor="middle" class="small">PSEL, PENABLE, ...</text>

  <rect x="190" y="50" width="520" height="250" class="box" style="fill:#eef2ff"/>
  <text x="450" y="78" text-anchor="middle" class="label" style="font-weight:600">apb_slave_top</text>

  <rect x="220" y="100" width="150" height="60" class="box"/>
  <text x="295" y="128" text-anchor="middle" class="label">apb_decoder</text>
  <text x="295" y="146" text-anchor="middle" class="small">addr decode</text>

  <rect x="220" y="190" width="170" height="60" class="box"/>
  <text x="305" y="218" text-anchor="middle" class="label">register_bank</text>
  <text x="305" y="236" text-anchor="middle" class="small">storage</text>

  <rect x="420" y="190" width="120" height="60" class="box"/>
  <text x="480" y="218" text-anchor="middle" class="label">read_mux</text>
  <text x="480" y="236" text-anchor="middle" class="small">PRDATA</text>

  <rect x="530" y="100" width="160" height="60" class="box"/>
  <text x="610" y="122" text-anchor="middle" class="label">apb_response_logic</text>
  <text x="610" y="142" text-anchor="middle" class="small">PREADY, PSLVERR</text>

  <line x1="150" y1="165" x2="190" y2="165" class="line"/>
  <line x1="370" y1="130" x2="420" y2="130" class="line"/>
  <line x1="370" y1="220" x2="420" y2="220" class="line"/>
  <line x1="540" y1="220" x2="580" y2="160" class="line" style="marker-end:none"/>
  <line x1="690" y1="165" x2="730" y2="165" class="line"/>
  <text x="755" y="170" class="label">PRDATA</text>

  <text x="450" y="330" text-anchor="middle" class="small">Modular, parameterized RTL — synthesis-friendly hierarchy</text>
</svg>
